<mxfile host="app.diagrams.net" modified="2021-12-13T13:22:35.501Z" agent="5.0 (Windows NT 10.0; Win64; x64) AppleWebKit/537.36 (KHTML, like Gecko) Chrome/94.0.4606.71 Safari/537.36" etag="olxjuGeW1Vb8AUcGduNL" version="15.9.4" type="github">
  <diagram id="Q7AEC-_fKNd9yhNPSurx" name="Page-1">
    <mxGraphModel dx="1497" dy="836" grid="1" gridSize="10" guides="1" tooltips="1" connect="1" arrows="1" fold="1" page="1" pageScale="1" pageWidth="827" pageHeight="1169" math="0" shadow="0">
      <root>
        <mxCell id="0" />
        <mxCell id="1" parent="0" />
        <mxCell id="6gUORLWhg1mMuSl4yJLm-4" style="edgeStyle=orthogonalEdgeStyle;rounded=0;orthogonalLoop=1;jettySize=auto;html=1;exitX=0.5;exitY=1;exitDx=0;exitDy=0;fontSize=14;fillColor=#fff2cc;strokeColor=#d6b656;" parent="1" source="6gUORLWhg1mMuSl4yJLm-1" target="6gUORLWhg1mMuSl4yJLm-3" edge="1">
          <mxGeometry relative="1" as="geometry" />
        </mxCell>
        <mxCell id="6gUORLWhg1mMuSl4yJLm-1" value="&lt;font style=&quot;font-size: 14px&quot;&gt;&lt;b&gt;DÃ©but&lt;/b&gt;&lt;br&gt;zMsg + strNumeroAppel (sortie)&lt;/font&gt;" style="rounded=0;whiteSpace=wrap;html=1;fillColor=#fff2cc;strokeColor=#d6b656;" parent="1" vertex="1">
          <mxGeometry x="165" y="80" width="170" height="60" as="geometry" />
        </mxCell>
        <mxCell id="6gUORLWhg1mMuSl4yJLm-2" value="Process_Cpp\Suivi_Camions\sc_fonc.cpp / IdentifierCamion" style="text;html=1;align=center;verticalAlign=middle;resizable=0;points=[];autosize=1;strokeColor=none;fillColor=none;fontStyle=1;fontSize=14;" parent="1" vertex="1">
          <mxGeometry x="418" y="90" width="420" height="20" as="geometry" />
        </mxCell>
        <mxCell id="6gUORLWhg1mMuSl4yJLm-6" value="" style="edgeStyle=orthogonalEdgeStyle;rounded=0;orthogonalLoop=1;jettySize=auto;html=1;fontSize=14;fillColor=#fff2cc;strokeColor=#d6b656;" parent="1" source="6gUORLWhg1mMuSl4yJLm-3" target="6gUORLWhg1mMuSl4yJLm-5" edge="1">
          <mxGeometry relative="1" as="geometry" />
        </mxCell>
        <mxCell id="6gUORLWhg1mMuSl4yJLm-3" value="&lt;font style=&quot;font-size: 14px&quot;&gt;strNumeroAppel = &quot;&quot;&lt;/font&gt;" style="rounded=0;whiteSpace=wrap;html=1;fontSize=14;fillColor=#fff2cc;strokeColor=#d6b656;" parent="1" vertex="1">
          <mxGeometry x="180" y="180" width="140" height="40" as="geometry" />
        </mxCell>
        <mxCell id="6gUORLWhg1mMuSl4yJLm-8" value="" style="edgeStyle=orthogonalEdgeStyle;rounded=0;orthogonalLoop=1;jettySize=auto;html=1;fontSize=14;fillColor=#fff2cc;strokeColor=#d6b656;" parent="1" source="6gUORLWhg1mMuSl4yJLm-5" target="6gUORLWhg1mMuSl4yJLm-7" edge="1">
          <mxGeometry relative="1" as="geometry" />
        </mxCell>
        <mxCell id="6gUORLWhg1mMuSl4yJLm-5" value="&lt;font style=&quot;font-size: 14px&quot;&gt;strPriorite = APL_PRIORITE_NORMAL (&quot;N&quot;)&lt;/font&gt;" style="rounded=0;whiteSpace=wrap;html=1;fontSize=14;fillColor=#fff2cc;strokeColor=#d6b656;" parent="1" vertex="1">
          <mxGeometry x="155" y="260" width="190" height="100" as="geometry" />
        </mxCell>
        <mxCell id="6gUORLWhg1mMuSl4yJLm-11" style="edgeStyle=orthogonalEdgeStyle;rounded=0;orthogonalLoop=1;jettySize=auto;html=1;exitX=1;exitY=0.5;exitDx=0;exitDy=0;entryX=0.5;entryY=0;entryDx=0;entryDy=0;fontSize=10;fillColor=#fff2cc;strokeColor=#d6b656;" parent="1" source="6gUORLWhg1mMuSl4yJLm-7" target="6gUORLWhg1mMuSl4yJLm-9" edge="1">
          <mxGeometry relative="1" as="geometry" />
        </mxCell>
        <mxCell id="6gUORLWhg1mMuSl4yJLm-13" value="" style="edgeStyle=orthogonalEdgeStyle;rounded=0;orthogonalLoop=1;jettySize=auto;html=1;fontSize=10;" parent="1" source="6gUORLWhg1mMuSl4yJLm-7" target="6gUORLWhg1mMuSl4yJLm-12" edge="1">
          <mxGeometry relative="1" as="geometry" />
        </mxCell>
        <mxCell id="6gUORLWhg1mMuSl4yJLm-7" value="&lt;font style=&quot;font-size: 14px&quot;&gt;zMsg.type_entree &lt;br&gt;== &lt;br&gt;ENT_LIV_PROD_SIDE&lt;br&gt;ou &lt;br&gt;ENT_LIV_PROD_NON_SIDE&lt;br&gt;&lt;br&gt;&lt;br&gt;&lt;/font&gt;" style="rhombus;whiteSpace=wrap;html=1;rounded=0;fontSize=14;strokeColor=#d6b656;fillColor=#fff2cc;" parent="1" vertex="1">
          <mxGeometry y="400" width="220" height="200" as="geometry" />
        </mxCell>
        <mxCell id="6gUORLWhg1mMuSl4yJLm-17" value="" style="edgeStyle=orthogonalEdgeStyle;rounded=0;orthogonalLoop=1;jettySize=auto;html=1;fontSize=10;" parent="1" source="6gUORLWhg1mMuSl4yJLm-9" target="6gUORLWhg1mMuSl4yJLm-16" edge="1">
          <mxGeometry relative="1" as="geometry" />
        </mxCell>
        <mxCell id="6gUORLWhg1mMuSl4yJLm-20" style="edgeStyle=orthogonalEdgeStyle;rounded=0;orthogonalLoop=1;jettySize=auto;html=1;exitX=1;exitY=0.5;exitDx=0;exitDy=0;entryX=0.5;entryY=0;entryDx=0;entryDy=0;fontSize=10;fillColor=#fff2cc;strokeColor=#d6b656;" parent="1" source="6gUORLWhg1mMuSl4yJLm-9" target="6gUORLWhg1mMuSl4yJLm-18" edge="1">
          <mxGeometry relative="1" as="geometry" />
        </mxCell>
        <mxCell id="6gUORLWhg1mMuSl4yJLm-9" value="&lt;font style=&quot;font-size: 14px&quot;&gt;zMsg.type_entree == ENT_ENLEV_PROD_DIVERS&lt;/font&gt;" style="rhombus;whiteSpace=wrap;html=1;rounded=0;fontSize=14;strokeColor=#d6b656;fillColor=#fff2cc;" parent="1" vertex="1">
          <mxGeometry x="201.25" y="550" width="208.75" height="200" as="geometry" />
        </mxCell>
        <mxCell id="6gUORLWhg1mMuSl4yJLm-47" style="edgeStyle=orthogonalEdgeStyle;rounded=0;orthogonalLoop=1;jettySize=auto;html=1;exitX=0.5;exitY=1;exitDx=0;exitDy=0;fontSize=10;fontColor=#CC0000;entryX=0.5;entryY=0;entryDx=0;entryDy=0;" parent="1" source="6gUORLWhg1mMuSl4yJLm-12" target="YQwB-aBYrOeYrWGFvleu-15" edge="1">
          <mxGeometry relative="1" as="geometry">
            <Array as="points">
              <mxPoint x="110" y="1680" />
              <mxPoint x="380" y="1680" />
            </Array>
            <mxPoint x="460" y="2030" as="targetPoint" />
          </mxGeometry>
        </mxCell>
        <mxCell id="6gUORLWhg1mMuSl4yJLm-12" value="&lt;font style=&quot;font-size: 14px&quot;&gt;appel.strLettreProduit&lt;br&gt;= &lt;br&gt;APL_CLS_LIVRAISON&lt;br&gt;(&quot;&lt;b&gt;L&lt;/b&gt;&quot;)&lt;/font&gt;" style="whiteSpace=wrap;html=1;rounded=0;fontSize=14;fontColor=#333333;strokeColor=#666666;fillColor=#f5f5f5;" parent="1" vertex="1">
          <mxGeometry x="25" y="690" width="170" height="90" as="geometry" />
        </mxCell>
        <mxCell id="6gUORLWhg1mMuSl4yJLm-49" style="edgeStyle=orthogonalEdgeStyle;rounded=0;orthogonalLoop=1;jettySize=auto;html=1;exitX=0.5;exitY=1;exitDx=0;exitDy=0;fontSize=10;fontColor=#CC0000;entryX=0.5;entryY=0;entryDx=0;entryDy=0;" parent="1" source="6gUORLWhg1mMuSl4yJLm-16" target="YQwB-aBYrOeYrWGFvleu-15" edge="1">
          <mxGeometry relative="1" as="geometry">
            <Array as="points">
              <mxPoint x="306" y="1680" />
              <mxPoint x="380" y="1680" />
            </Array>
            <mxPoint x="450" y="2000" as="targetPoint" />
          </mxGeometry>
        </mxCell>
        <mxCell id="6gUORLWhg1mMuSl4yJLm-16" value="&lt;font style=&quot;font-size: 14px&quot;&gt;appel.strLettreProduit&lt;br&gt;= &lt;br&gt;APL_CLS_ENLEV_DIVERS&lt;br&gt;(&quot;&lt;b&gt;D&lt;/b&gt;&quot;)&lt;/font&gt;" style="whiteSpace=wrap;html=1;rounded=0;fontSize=14;fontColor=#333333;strokeColor=#666666;fillColor=#f5f5f5;" parent="1" vertex="1">
          <mxGeometry x="211.87" y="800" width="187.5" height="100" as="geometry" />
        </mxCell>
        <mxCell id="6gUORLWhg1mMuSl4yJLm-24" value="" style="edgeStyle=orthogonalEdgeStyle;rounded=0;orthogonalLoop=1;jettySize=auto;html=1;fontSize=10;fillColor=#fff2cc;strokeColor=#d6b656;" parent="1" source="6gUORLWhg1mMuSl4yJLm-18" target="6gUORLWhg1mMuSl4yJLm-23" edge="1">
          <mxGeometry relative="1" as="geometry" />
        </mxCell>
        <mxCell id="6gUORLWhg1mMuSl4yJLm-18" value="&lt;font style=&quot;font-size: 14px&quot;&gt;zMsg.type_entree == ENT_ENLEV_PROD_SIDE&lt;/font&gt;" style="rhombus;whiteSpace=wrap;html=1;rounded=0;fontSize=14;strokeColor=#d6b656;fillColor=#fff2cc;" parent="1" vertex="1">
          <mxGeometry x="440" y="710" width="190" height="190" as="geometry" />
        </mxCell>
        <mxCell id="6gUORLWhg1mMuSl4yJLm-26" value="" style="edgeStyle=orthogonalEdgeStyle;rounded=0;orthogonalLoop=1;jettySize=auto;html=1;fontSize=10;" parent="1" source="6gUORLWhg1mMuSl4yJLm-23" target="6gUORLWhg1mMuSl4yJLm-25" edge="1">
          <mxGeometry relative="1" as="geometry" />
        </mxCell>
        <mxCell id="6gUORLWhg1mMuSl4yJLm-31" style="edgeStyle=orthogonalEdgeStyle;rounded=0;orthogonalLoop=1;jettySize=auto;html=1;exitX=1;exitY=0.5;exitDx=0;exitDy=0;entryX=0.5;entryY=0;entryDx=0;entryDy=0;fontSize=10;fillColor=#fff2cc;strokeColor=#d6b656;" parent="1" source="6gUORLWhg1mMuSl4yJLm-23" target="6gUORLWhg1mMuSl4yJLm-29" edge="1">
          <mxGeometry relative="1" as="geometry" />
        </mxCell>
        <mxCell id="6gUORLWhg1mMuSl4yJLm-23" value="zMsg.typ_ident == IDENT_AVEC_NUM_CMD&amp;nbsp;&lt;br&gt;&lt;b&gt;OU&lt;/b&gt;&lt;br&gt;&amp;nbsp;IDENT_SANS_NUM_CMD" style="rhombus;whiteSpace=wrap;html=1;rounded=0;fontSize=14;strokeColor=#d6b656;fillColor=#fff2cc;" parent="1" vertex="1">
          <mxGeometry x="415" y="950" width="240" height="205" as="geometry" />
        </mxCell>
        <mxCell id="6gUORLWhg1mMuSl4yJLm-50" style="edgeStyle=orthogonalEdgeStyle;rounded=0;orthogonalLoop=1;jettySize=auto;html=1;exitX=0.5;exitY=1;exitDx=0;exitDy=0;fontSize=10;fontColor=#CC0000;entryX=0.5;entryY=0;entryDx=0;entryDy=0;" parent="1" source="6gUORLWhg1mMuSl4yJLm-25" target="YQwB-aBYrOeYrWGFvleu-15" edge="1">
          <mxGeometry relative="1" as="geometry">
            <Array as="points">
              <mxPoint x="535" y="1680" />
              <mxPoint x="380" y="1680" />
            </Array>
            <mxPoint x="440" y="1980" as="targetPoint" />
          </mxGeometry>
        </mxCell>
        <mxCell id="6gUORLWhg1mMuSl4yJLm-25" value="appel.strLettreProduit = APL_CLS_GENERIQUE&lt;br&gt;(&lt;b&gt;X&lt;/b&gt;)" style="whiteSpace=wrap;html=1;rounded=0;fontSize=14;fontColor=#333333;strokeColor=#666666;fillColor=#f5f5f5;" parent="1" vertex="1">
          <mxGeometry x="445" y="1230" width="180" height="77.5" as="geometry" />
        </mxCell>
        <mxCell id="6gUORLWhg1mMuSl4yJLm-27" value="Enlevement &lt;br&gt;sidÃ©rurgique" style="text;html=1;align=center;verticalAlign=middle;resizable=0;points=[];autosize=1;strokeColor=none;fillColor=none;fontSize=10;" parent="1" vertex="1">
          <mxGeometry x="530" y="660" width="70" height="30" as="geometry" />
        </mxCell>
        <mxCell id="6gUORLWhg1mMuSl4yJLm-28" value="Identification sans BE" style="text;html=1;align=center;verticalAlign=middle;resizable=0;points=[];autosize=1;strokeColor=none;fillColor=none;fontSize=10;" parent="1" vertex="1">
          <mxGeometry x="545" y="1190" width="110" height="20" as="geometry" />
        </mxCell>
        <mxCell id="6gUORLWhg1mMuSl4yJLm-35" value="" style="edgeStyle=orthogonalEdgeStyle;rounded=0;orthogonalLoop=1;jettySize=auto;html=1;fontSize=10;" parent="1" target="6gUORLWhg1mMuSl4yJLm-34" edge="1">
          <mxGeometry relative="1" as="geometry">
            <mxPoint x="735" y="1242" as="sourcePoint" />
          </mxGeometry>
        </mxCell>
        <mxCell id="6gUORLWhg1mMuSl4yJLm-53" style="edgeStyle=orthogonalEdgeStyle;rounded=0;orthogonalLoop=1;jettySize=auto;html=1;exitX=1;exitY=0.5;exitDx=0;exitDy=0;entryX=0.5;entryY=0;entryDx=0;entryDy=0;fontSize=10;fontColor=#CC0000;fillColor=#fff2cc;strokeColor=#d6b656;" parent="1" target="6gUORLWhg1mMuSl4yJLm-36" edge="1">
          <mxGeometry relative="1" as="geometry">
            <mxPoint x="810" y="1162" as="sourcePoint" />
          </mxGeometry>
        </mxCell>
        <mxCell id="6gUORLWhg1mMuSl4yJLm-29" value="Lecture &lt;br&gt;ICBEdans &lt;br&gt;T_ICBE&lt;br&gt;==&lt;br&gt;False&lt;br&gt;" style="rhombus;whiteSpace=wrap;html=1;rounded=0;fontSize=14;strokeColor=#d6b656;fillColor=#fff2cc;" parent="1" vertex="1">
          <mxGeometry x="660" y="1083" width="150" height="160" as="geometry" />
        </mxCell>
        <mxCell id="6gUORLWhg1mMuSl4yJLm-32" value="Recherche ICBE dans MER" style="text;html=1;align=center;verticalAlign=middle;resizable=0;points=[];autosize=1;strokeColor=none;fillColor=none;fontSize=10;" parent="1" vertex="1">
          <mxGeometry x="740" y="1052" width="140" height="20" as="geometry" />
        </mxCell>
        <mxCell id="6gUORLWhg1mMuSl4yJLm-34" value="&lt;b&gt;&lt;font color=&quot;#cc0000&quot;&gt;Sortie:&lt;/font&gt;&lt;/b&gt;&lt;br&gt;ERR_SQL" style="whiteSpace=wrap;html=1;rounded=0;fontSize=14;fontColor=#333333;strokeColor=#666666;fillColor=#f5f5f5;" parent="1" vertex="1">
          <mxGeometry x="675" y="1282" width="120" height="60" as="geometry" />
        </mxCell>
        <mxCell id="6gUORLWhg1mMuSl4yJLm-54" style="edgeStyle=orthogonalEdgeStyle;rounded=0;orthogonalLoop=1;jettySize=auto;html=1;exitX=0.5;exitY=1;exitDx=0;exitDy=0;fontSize=10;fontColor=#CC0000;" parent="1" source="6gUORLWhg1mMuSl4yJLm-36" target="6gUORLWhg1mMuSl4yJLm-39" edge="1">
          <mxGeometry relative="1" as="geometry" />
        </mxCell>
        <mxCell id="YQwB-aBYrOeYrWGFvleu-4" style="edgeStyle=orthogonalEdgeStyle;rounded=0;orthogonalLoop=1;jettySize=auto;html=1;exitX=1;exitY=0.5;exitDx=0;exitDy=0;entryX=0.5;entryY=0;entryDx=0;entryDy=0;fontSize=14;fontColor=#CC0000;strokeColor=#d6b656;strokeWidth=1;fillColor=#fff2cc;" edge="1" parent="1" source="6gUORLWhg1mMuSl4yJLm-36" target="YQwB-aBYrOeYrWGFvleu-3">
          <mxGeometry relative="1" as="geometry" />
        </mxCell>
        <mxCell id="6gUORLWhg1mMuSl4yJLm-36" value="ICBE &lt;br&gt;n&#39;existe pas dans &lt;br&gt;MER" style="rhombus;whiteSpace=wrap;html=1;rounded=0;fontSize=14;strokeColor=#d6b656;fillColor=#fff2cc;" parent="1" vertex="1">
          <mxGeometry x="840" y="1187" width="130" height="140" as="geometry" />
        </mxCell>
        <mxCell id="6gUORLWhg1mMuSl4yJLm-51" style="edgeStyle=orthogonalEdgeStyle;rounded=0;orthogonalLoop=1;jettySize=auto;html=1;exitX=0.5;exitY=1;exitDx=0;exitDy=0;fontSize=10;fontColor=#CC0000;entryX=0.5;entryY=0;entryDx=0;entryDy=0;" parent="1" source="6gUORLWhg1mMuSl4yJLm-39" target="YQwB-aBYrOeYrWGFvleu-15" edge="1">
          <mxGeometry relative="1" as="geometry">
            <Array as="points">
              <mxPoint x="905" y="1680" />
              <mxPoint x="380" y="1680" />
            </Array>
            <mxPoint x="430" y="1960" as="targetPoint" />
          </mxGeometry>
        </mxCell>
        <mxCell id="6gUORLWhg1mMuSl4yJLm-39" value="appel.strLettreProduit = APL_CLS_GENERIQUE&lt;br&gt;(&lt;b&gt;X&lt;/b&gt;)" style="whiteSpace=wrap;html=1;rounded=0;fontSize=14;fontColor=#333333;strokeColor=#666666;fillColor=#f5f5f5;" parent="1" vertex="1">
          <mxGeometry x="815" y="1369" width="180" height="77.5" as="geometry" />
        </mxCell>
        <mxCell id="6gUORLWhg1mMuSl4yJLm-44" style="edgeStyle=orthogonalEdgeStyle;rounded=0;orthogonalLoop=1;jettySize=auto;html=1;exitX=0.5;exitY=1;exitDx=0;exitDy=0;fontSize=10;fontColor=#CC0000;fillColor=#fff2cc;strokeColor=#d6b656;" parent="1" source="6gUORLWhg1mMuSl4yJLm-41" target="6gUORLWhg1mMuSl4yJLm-43" edge="1">
          <mxGeometry relative="1" as="geometry" />
        </mxCell>
        <mxCell id="6gUORLWhg1mMuSl4yJLm-41" value="appel.strPortePrevue = icbe.strPortePrevue" style="whiteSpace=wrap;html=1;rounded=0;fontSize=14;strokeColor=#d6b656;fillColor=#fff2cc;" parent="1" vertex="1">
          <mxGeometry x="1242" y="1478" width="180" height="77.5" as="geometry" />
        </mxCell>
        <mxCell id="6gUORLWhg1mMuSl4yJLm-43" value="strPriorite = icbe.strPriorite" style="whiteSpace=wrap;html=1;rounded=0;fontSize=14;strokeColor=#d6b656;fillColor=#fff2cc;" parent="1" vertex="1">
          <mxGeometry x="1242" y="1579" width="180" height="77.5" as="geometry" />
        </mxCell>
        <mxCell id="6gUORLWhg1mMuSl4yJLm-57" style="edgeStyle=orthogonalEdgeStyle;rounded=0;orthogonalLoop=1;jettySize=auto;html=1;exitX=0.5;exitY=1;exitDx=0;exitDy=0;fontSize=10;fontColor=#CC0000;fillColor=#fff2cc;strokeColor=#d6b656;" parent="1" source="6gUORLWhg1mMuSl4yJLm-46" target="6gUORLWhg1mMuSl4yJLm-55" edge="1">
          <mxGeometry relative="1" as="geometry" />
        </mxCell>
        <mxCell id="6gUORLWhg1mMuSl4yJLm-46" value="Appel&amp;nbsp;fonction&amp;nbsp;&lt;br&gt;&lt;b&gt;CalculNumAppel :&lt;br&gt;&lt;/b&gt;&lt;i&gt;DÃ©termination du NÂ° Appel&lt;br&gt;avec classe et niveau prioritÃ©&lt;br&gt;&lt;/i&gt;+ alim de dwAppError&lt;i&gt;&lt;br&gt;&lt;/i&gt;" style="whiteSpace=wrap;html=1;rounded=0;fontSize=14;strokeColor=#d6b656;fillColor=#fff2cc;" parent="1" vertex="1">
          <mxGeometry x="488" y="1836" width="280" height="97" as="geometry" />
        </mxCell>
        <mxCell id="6gUORLWhg1mMuSl4yJLm-59" style="edgeStyle=orthogonalEdgeStyle;rounded=0;orthogonalLoop=1;jettySize=auto;html=1;exitX=0.5;exitY=1;exitDx=0;exitDy=0;fontSize=10;fontColor=#CC0000;" parent="1" source="6gUORLWhg1mMuSl4yJLm-55" edge="1">
          <mxGeometry relative="1" as="geometry">
            <mxPoint x="628" y="2104" as="targetPoint" />
          </mxGeometry>
        </mxCell>
        <mxCell id="YQwB-aBYrOeYrWGFvleu-21" style="edgeStyle=orthogonalEdgeStyle;rounded=0;orthogonalLoop=1;jettySize=auto;html=1;exitX=0.5;exitY=1;exitDx=0;exitDy=0;entryX=0.5;entryY=0;entryDx=0;entryDy=0;fontSize=22;fontColor=#B3B3B3;strokeColor=#d6b656;strokeWidth=1;fillColor=#fff2cc;" edge="1" parent="1" source="6gUORLWhg1mMuSl4yJLm-55" target="6gUORLWhg1mMuSl4yJLm-60">
          <mxGeometry relative="1" as="geometry" />
        </mxCell>
        <mxCell id="6gUORLWhg1mMuSl4yJLm-55" value="dwAppelError != ERROR_SUCCESS" style="rhombus;whiteSpace=wrap;html=1;rounded=0;fontSize=14;strokeColor=#d6b656;fillColor=#fff2cc;" parent="1" vertex="1">
          <mxGeometry x="544" y="1963.25" width="168" height="166.75" as="geometry" />
        </mxCell>
        <mxCell id="6gUORLWhg1mMuSl4yJLm-63" value="" style="edgeStyle=orthogonalEdgeStyle;rounded=0;orthogonalLoop=1;jettySize=auto;html=1;fontSize=12;fontColor=#CC0000;entryX=0.5;entryY=0;entryDx=0;entryDy=0;fillColor=#fff2cc;strokeColor=#d6b656;" parent="1" source="6gUORLWhg1mMuSl4yJLm-60" target="YQwB-aBYrOeYrWGFvleu-23" edge="1">
          <mxGeometry relative="1" as="geometry">
            <mxPoint x="625.5" y="2310" as="targetPoint" />
          </mxGeometry>
        </mxCell>
        <mxCell id="6gUORLWhg1mMuSl4yJLm-60" value="&lt;font style=&quot;font-size: 14px&quot;&gt;Appel&amp;nbsp;fonction&amp;nbsp;&lt;br&gt;&lt;b&gt;CalculNumAppel :&lt;br&gt;&lt;/b&gt;&lt;i&gt;DÃ©termination du NÂ° Appel&lt;br&gt;avec classe et niveau prioritÃ©&lt;/i&gt;&lt;br&gt;+ alim de dwAppError&lt;br&gt;&lt;/font&gt;" style="rounded=0;whiteSpace=wrap;html=1;fontSize=10;fillColor=#fff2cc;strokeColor=#d6b656;" parent="1" vertex="1">
          <mxGeometry x="509" y="2152.81" width="238" height="111.19" as="geometry" />
        </mxCell>
        <mxCell id="6gUORLWhg1mMuSl4yJLm-76" style="edgeStyle=orthogonalEdgeStyle;rounded=0;orthogonalLoop=1;jettySize=auto;html=1;exitX=1;exitY=0.5;exitDx=0;exitDy=0;fontSize=12;fontColor=#CC0000;entryX=0.5;entryY=0;entryDx=0;entryDy=0;fillColor=#fff2cc;strokeColor=#d6b656;" parent="1" source="YQwB-aBYrOeYrWGFvleu-23" target="6gUORLWhg1mMuSl4yJLm-74" edge="1">
          <mxGeometry relative="1" as="geometry">
            <mxPoint x="980" y="2547" as="targetPoint" />
            <mxPoint x="706" y="2395" as="sourcePoint" />
          </mxGeometry>
        </mxCell>
        <mxCell id="6gUORLWhg1mMuSl4yJLm-79" style="edgeStyle=orthogonalEdgeStyle;rounded=0;orthogonalLoop=1;jettySize=auto;html=1;exitX=0.5;exitY=1;exitDx=0;exitDy=0;fontSize=12;fontColor=#000000;fillColor=#fff2cc;strokeColor=#d6b656;" parent="1" source="6gUORLWhg1mMuSl4yJLm-74" target="6gUORLWhg1mMuSl4yJLm-78" edge="1">
          <mxGeometry relative="1" as="geometry" />
        </mxCell>
        <mxCell id="6gUORLWhg1mMuSl4yJLm-74" value="&lt;font style=&quot;font-size: 14px&quot;&gt;appel.strLangue = zMsg.cod_langue&lt;/font&gt;" style="rounded=0;whiteSpace=wrap;html=1;fontSize=12;fillColor=#fff2cc;strokeColor=#d6b656;" parent="1" vertex="1">
          <mxGeometry x="760" y="2490" width="120" height="60" as="geometry" />
        </mxCell>
        <mxCell id="6gUORLWhg1mMuSl4yJLm-77" value="&lt;font color=&quot;#000000&quot; style=&quot;font-size: 14px&quot;&gt;CrÃ©ation de l&#39;appel dans MER&lt;/font&gt;" style="text;html=1;align=center;verticalAlign=middle;resizable=0;points=[];autosize=1;strokeColor=none;fillColor=none;fontSize=12;fontColor=#CC0000;" parent="1" vertex="1">
          <mxGeometry x="890" y="2500" width="200" height="20" as="geometry" />
        </mxCell>
        <mxCell id="6gUORLWhg1mMuSl4yJLm-81" value="" style="edgeStyle=orthogonalEdgeStyle;rounded=0;orthogonalLoop=1;jettySize=auto;html=1;fontSize=12;fontColor=#000000;" parent="1" source="6gUORLWhg1mMuSl4yJLm-78" target="6gUORLWhg1mMuSl4yJLm-80" edge="1">
          <mxGeometry relative="1" as="geometry" />
        </mxCell>
        <mxCell id="6gUORLWhg1mMuSl4yJLm-78" value="&lt;font style=&quot;font-size: 14px&quot;&gt;strZzz = zMsg.nom_emetteur&lt;/font&gt;" style="rounded=0;whiteSpace=wrap;html=1;fontSize=12;fillColor=#fff2cc;strokeColor=#d6b656;" parent="1" vertex="1">
          <mxGeometry x="745" y="2600" width="150" height="70" as="geometry" />
        </mxCell>
        <mxCell id="6gUORLWhg1mMuSl4yJLm-83" value="" style="edgeStyle=orthogonalEdgeStyle;rounded=0;orthogonalLoop=1;jettySize=auto;html=1;fontSize=12;fontColor=#000000;fillColor=#fff2cc;strokeColor=#d6b656;" parent="1" source="6gUORLWhg1mMuSl4yJLm-80" target="6gUORLWhg1mMuSl4yJLm-82" edge="1">
          <mxGeometry relative="1" as="geometry" />
        </mxCell>
        <mxCell id="6gUORLWhg1mMuSl4yJLm-85" style="edgeStyle=orthogonalEdgeStyle;rounded=0;orthogonalLoop=1;jettySize=auto;html=1;exitX=1;exitY=0.5;exitDx=0;exitDy=0;entryX=0.5;entryY=0;entryDx=0;entryDy=0;fontSize=12;fontColor=#000000;" parent="1" source="6gUORLWhg1mMuSl4yJLm-80" target="6gUORLWhg1mMuSl4yJLm-84" edge="1">
          <mxGeometry relative="1" as="geometry" />
        </mxCell>
        <mxCell id="6gUORLWhg1mMuSl4yJLm-80" value="&lt;font style=&quot;font-size: 14px&quot;&gt;PC_GIE &lt;br&gt;dans strZzz&lt;/font&gt;" style="rhombus;whiteSpace=wrap;html=1;rounded=0;strokeColor=#d6b656;fillColor=#fff2cc;" parent="1" vertex="1">
          <mxGeometry x="770" y="2710" width="100" height="110" as="geometry" />
        </mxCell>
        <mxCell id="6gUORLWhg1mMuSl4yJLm-82" value="&lt;font style=&quot;font-size: 14px&quot;&gt;appel.lgLieuIdent = LOCAL_GIE&lt;/font&gt;" style="whiteSpace=wrap;html=1;rounded=0;strokeColor=#d6b656;fillColor=#fff2cc;" parent="1" vertex="1">
          <mxGeometry x="760" y="2840" width="120" height="60" as="geometry" />
        </mxCell>
        <mxCell id="6gUORLWhg1mMuSl4yJLm-88" style="edgeStyle=orthogonalEdgeStyle;rounded=0;orthogonalLoop=1;jettySize=auto;html=1;exitX=0.5;exitY=1;exitDx=0;exitDy=0;entryX=0.5;entryY=0;entryDx=0;entryDy=0;fontSize=12;fontColor=#000000;" parent="1" source="6gUORLWhg1mMuSl4yJLm-84" target="6gUORLWhg1mMuSl4yJLm-86" edge="1">
          <mxGeometry relative="1" as="geometry" />
        </mxCell>
        <mxCell id="6gUORLWhg1mMuSl4yJLm-84" value="&lt;font style=&quot;font-size: 14px&quot;&gt;appel.lgLieuIdent = LOCAL_PG&lt;/font&gt;" style="whiteSpace=wrap;html=1;rounded=0;fontColor=#333333;strokeColor=#666666;fillColor=#f5f5f5;" parent="1" vertex="1">
          <mxGeometry x="895" y="2840" width="120" height="60" as="geometry" />
        </mxCell>
        <mxCell id="6gUORLWhg1mMuSl4yJLm-90" style="edgeStyle=orthogonalEdgeStyle;rounded=0;orthogonalLoop=1;jettySize=auto;html=1;exitX=0.5;exitY=1;exitDx=0;exitDy=0;fontSize=12;fontColor=#000000;fillColor=#fff2cc;strokeColor=#d6b656;" parent="1" source="6gUORLWhg1mMuSl4yJLm-86" target="6gUORLWhg1mMuSl4yJLm-89" edge="1">
          <mxGeometry relative="1" as="geometry" />
        </mxCell>
        <mxCell id="6gUORLWhg1mMuSl4yJLm-86" value="&lt;font style=&quot;font-size: 14px&quot;&gt;appel.strNumRemorque = &lt;br&gt;zMsg.num_remorque&lt;/font&gt;" style="whiteSpace=wrap;html=1;rounded=0;strokeColor=#d6b656;fillColor=#fff2cc;" parent="1" vertex="1">
          <mxGeometry x="732.5" y="2950" width="175" height="50" as="geometry" />
        </mxCell>
        <mxCell id="6gUORLWhg1mMuSl4yJLm-92" value="" style="edgeStyle=orthogonalEdgeStyle;rounded=0;orthogonalLoop=1;jettySize=auto;html=1;fontSize=12;fontColor=#000000;fillColor=#fff2cc;strokeColor=#000000;" parent="1" source="6gUORLWhg1mMuSl4yJLm-89" target="6gUORLWhg1mMuSl4yJLm-91" edge="1">
          <mxGeometry relative="1" as="geometry" />
        </mxCell>
        <mxCell id="6gUORLWhg1mMuSl4yJLm-94" style="edgeStyle=orthogonalEdgeStyle;rounded=0;orthogonalLoop=1;jettySize=auto;html=1;exitX=1;exitY=0.5;exitDx=0;exitDy=0;fontSize=12;fontColor=#000000;entryX=0.5;entryY=0;entryDx=0;entryDy=0;fillColor=#fff2cc;strokeColor=#d6b656;" parent="1" source="6gUORLWhg1mMuSl4yJLm-89" target="6gUORLWhg1mMuSl4yJLm-93" edge="1">
          <mxGeometry relative="1" as="geometry">
            <mxPoint x="953" y="3602" as="targetPoint" />
          </mxGeometry>
        </mxCell>
        <mxCell id="6gUORLWhg1mMuSl4yJLm-89" value="&lt;font style=&quot;font-size: 14px&quot;&gt;zMsg.typ_ident&lt;br&gt;== IDENT_AVEC_ICBE&lt;/font&gt;" style="rhombus;whiteSpace=wrap;html=1;rounded=0;strokeColor=#d6b656;fillColor=#fff2cc;" parent="1" vertex="1">
          <mxGeometry x="736.25" y="3030" width="167.5" height="180" as="geometry" />
        </mxCell>
        <mxCell id="YQwB-aBYrOeYrWGFvleu-28" style="edgeStyle=orthogonalEdgeStyle;rounded=0;orthogonalLoop=1;jettySize=auto;html=1;exitX=0.5;exitY=1;exitDx=0;exitDy=0;fontSize=14;fontColor=#000000;strokeColor=#000000;strokeWidth=1;" edge="1" parent="1" source="6gUORLWhg1mMuSl4yJLm-91" target="YQwB-aBYrOeYrWGFvleu-27">
          <mxGeometry relative="1" as="geometry" />
        </mxCell>
        <mxCell id="6gUORLWhg1mMuSl4yJLm-91" value="&lt;font style=&quot;font-size: 14px&quot;&gt;appel.strAvecICBE =&quot;O&quot;&lt;/font&gt;" style="whiteSpace=wrap;html=1;rounded=0;strokeColor=#666666;fillColor=#f5f5f5;fontColor=#333333;" parent="1" vertex="1">
          <mxGeometry x="751.25" y="3228" width="137.5" height="70" as="geometry" />
        </mxCell>
        <mxCell id="YQwB-aBYrOeYrWGFvleu-29" style="edgeStyle=orthogonalEdgeStyle;rounded=0;orthogonalLoop=1;jettySize=auto;html=1;exitX=0.5;exitY=1;exitDx=0;exitDy=0;fontSize=14;fontColor=#000000;strokeColor=#d6b656;strokeWidth=1;fillColor=#fff2cc;" edge="1" parent="1" source="6gUORLWhg1mMuSl4yJLm-93" target="YQwB-aBYrOeYrWGFvleu-27">
          <mxGeometry relative="1" as="geometry" />
        </mxCell>
        <mxCell id="6gUORLWhg1mMuSl4yJLm-93" value="&lt;font style=&quot;font-size: 14px&quot;&gt;appel.strAvecICBE =&quot;N&quot;&lt;/font&gt;" style="whiteSpace=wrap;html=1;rounded=0;strokeColor=#d6b656;fillColor=#fff2cc;" parent="1" vertex="1">
          <mxGeometry x="916" y="3228" width="130" height="70" as="geometry" />
        </mxCell>
        <mxCell id="YQwB-aBYrOeYrWGFvleu-1" style="edgeStyle=orthogonalEdgeStyle;rounded=0;orthogonalLoop=1;jettySize=auto;html=1;exitX=0.5;exitY=1;exitDx=0;exitDy=0;fontSize=14;strokeColor=#3333FF;strokeWidth=4;" edge="1" parent="1" source="6gUORLWhg1mMuSl4yJLm-3" target="6gUORLWhg1mMuSl4yJLm-3">
          <mxGeometry relative="1" as="geometry" />
        </mxCell>
        <mxCell id="YQwB-aBYrOeYrWGFvleu-2" value="Identification avec NÂ° Commande seul &lt;font color=&quot;#cc0000&quot;&gt;=&amp;gt; impossible car saisie de NÂ° BE et NÂ° Commande sont renseignÃ©s&lt;/font&gt;&lt;br&gt;&lt;b&gt;OU&lt;/b&gt;&lt;br&gt;Identification sans NÂ° Commande (&lt;b&gt;cas particulier: &lt;/b&gt;NÂ° BE = &quot;&quot; &lt;b&gt;ET &lt;/b&gt;NÂ° IC = &quot;&quot; &lt;b&gt;ET &lt;/b&gt;NÂ° Commande = &quot;&quot;)&lt;br&gt;&lt;font color=&quot;#cc0000&quot;&gt;=&amp;gt; impossible avec Ã©cran car contrÃ´les bloquent cela&lt;/font&gt;" style="text;html=1;align=left;verticalAlign=middle;resizable=0;points=[];autosize=1;strokeColor=none;fillColor=none;fontSize=14;" vertex="1" parent="1">
          <mxGeometry x="650" y="965" width="680" height="70" as="geometry" />
        </mxCell>
        <mxCell id="YQwB-aBYrOeYrWGFvleu-6" style="edgeStyle=orthogonalEdgeStyle;rounded=0;orthogonalLoop=1;jettySize=auto;html=1;exitX=0.5;exitY=1;exitDx=0;exitDy=0;entryX=0.5;entryY=0;entryDx=0;entryDy=0;fontSize=14;fontColor=#CC0000;strokeColor=#d6b656;strokeWidth=1;fillColor=#fff2cc;" edge="1" parent="1" source="YQwB-aBYrOeYrWGFvleu-3" target="YQwB-aBYrOeYrWGFvleu-5">
          <mxGeometry relative="1" as="geometry" />
        </mxCell>
        <mxCell id="YQwB-aBYrOeYrWGFvleu-3" value="appel.strLettreProduit &lt;br&gt;=&amp;nbsp;&lt;br&gt;icbe.strLettreProduit" style="whiteSpace=wrap;html=1;rounded=0;fontSize=14;strokeColor=#d6b656;fillColor=#fff2cc;" vertex="1" parent="1">
          <mxGeometry x="1036" y="1279" width="180" height="77.5" as="geometry" />
        </mxCell>
        <mxCell id="YQwB-aBYrOeYrWGFvleu-8" style="edgeStyle=orthogonalEdgeStyle;rounded=0;orthogonalLoop=1;jettySize=auto;html=1;exitX=0.5;exitY=1;exitDx=0;exitDy=0;entryX=0.5;entryY=0;entryDx=0;entryDy=0;fontSize=14;fontColor=#CC0000;strokeColor=#000000;strokeWidth=1;" edge="1" parent="1" source="YQwB-aBYrOeYrWGFvleu-5" target="YQwB-aBYrOeYrWGFvleu-7">
          <mxGeometry relative="1" as="geometry" />
        </mxCell>
        <mxCell id="YQwB-aBYrOeYrWGFvleu-9" style="edgeStyle=orthogonalEdgeStyle;rounded=0;orthogonalLoop=1;jettySize=auto;html=1;exitX=1;exitY=0.5;exitDx=0;exitDy=0;entryX=0.5;entryY=0;entryDx=0;entryDy=0;fontSize=14;fontColor=#CC0000;strokeColor=#d6b656;strokeWidth=1;fillColor=#fff2cc;" edge="1" parent="1" source="YQwB-aBYrOeYrWGFvleu-5" target="6gUORLWhg1mMuSl4yJLm-41">
          <mxGeometry relative="1" as="geometry" />
        </mxCell>
        <mxCell id="YQwB-aBYrOeYrWGFvleu-5" value="icbe.strLettreProduit &lt;br&gt;== &lt;br&gt;&quot;&quot;&amp;nbsp;&lt;b&gt;OU&amp;nbsp;&lt;/b&gt;&quot; &quot;" style="rhombus;whiteSpace=wrap;html=1;rounded=0;fontSize=14;fillColor=#fff2cc;strokeColor=#d6b656;" vertex="1" parent="1">
          <mxGeometry x="1046" y="1379" width="160" height="160" as="geometry" />
        </mxCell>
        <mxCell id="YQwB-aBYrOeYrWGFvleu-10" style="edgeStyle=orthogonalEdgeStyle;rounded=0;orthogonalLoop=1;jettySize=auto;html=1;exitX=0.5;exitY=1;exitDx=0;exitDy=0;fontSize=14;fontColor=#CC0000;strokeColor=#000000;strokeWidth=1;entryX=0.5;entryY=0;entryDx=0;entryDy=0;" edge="1" parent="1" source="YQwB-aBYrOeYrWGFvleu-7" target="YQwB-aBYrOeYrWGFvleu-15">
          <mxGeometry relative="1" as="geometry">
            <mxPoint x="440" y="1910" as="targetPoint" />
            <Array as="points">
              <mxPoint x="1126" y="1680" />
              <mxPoint x="380" y="1680" />
            </Array>
          </mxGeometry>
        </mxCell>
        <mxCell id="YQwB-aBYrOeYrWGFvleu-7" value="appel.strLettreProduit = APL_CLS_GENERIQUE&lt;br&gt;(&lt;b&gt;X&lt;/b&gt;)" style="whiteSpace=wrap;html=1;rounded=0;fontSize=14;fontColor=#333333;strokeColor=#666666;fillColor=#f5f5f5;" vertex="1" parent="1">
          <mxGeometry x="1036" y="1560" width="180" height="77.5" as="geometry" />
        </mxCell>
        <mxCell id="YQwB-aBYrOeYrWGFvleu-13" value="&lt;font color=&quot;#000000&quot;&gt;Appel avec &lt;br&gt;&lt;b&gt;classe&lt;/b&gt;,&lt;br&gt;&lt;b&gt;appel.strLettreProduit&lt;/b&gt;, &lt;br&gt;&lt;b&gt;strPriorite&lt;/b&gt;,&lt;br&gt;&lt;b&gt;appel.strNumeroAppel&amp;nbsp;&lt;/b&gt;&lt;/font&gt;" style="text;html=1;align=left;verticalAlign=middle;resizable=0;points=[];autosize=1;strokeColor=none;fillColor=none;fontSize=14;fontColor=#CC0000;" vertex="1" parent="1">
          <mxGeometry x="778" y="1838" width="170" height="90" as="geometry" />
        </mxCell>
        <mxCell id="YQwB-aBYrOeYrWGFvleu-17" style="edgeStyle=orthogonalEdgeStyle;rounded=0;orthogonalLoop=1;jettySize=auto;html=1;exitX=0.5;exitY=1;exitDx=0;exitDy=0;entryX=0.5;entryY=0;entryDx=0;entryDy=0;fontSize=14;fontColor=#000000;strokeColor=#000000;strokeWidth=1;" edge="1" parent="1" source="YQwB-aBYrOeYrWGFvleu-15" target="YQwB-aBYrOeYrWGFvleu-16">
          <mxGeometry relative="1" as="geometry" />
        </mxCell>
        <mxCell id="YQwB-aBYrOeYrWGFvleu-18" style="edgeStyle=orthogonalEdgeStyle;rounded=0;orthogonalLoop=1;jettySize=auto;html=1;exitX=1;exitY=0.5;exitDx=0;exitDy=0;entryX=0.5;entryY=0;entryDx=0;entryDy=0;fontSize=14;fontColor=#000000;strokeColor=#d6b656;strokeWidth=1;fillColor=#fff2cc;" edge="1" parent="1" source="YQwB-aBYrOeYrWGFvleu-15" target="6gUORLWhg1mMuSl4yJLm-46">
          <mxGeometry relative="1" as="geometry" />
        </mxCell>
        <mxCell id="YQwB-aBYrOeYrWGFvleu-15" value="BD_GetClasse avec appel.strLettreProduit&lt;br&gt;et classe (sortie)&lt;br&gt;== false" style="rhombus;whiteSpace=wrap;html=1;fontSize=14;fillColor=#fff2cc;strokeColor=#d6b656;" vertex="1" parent="1">
          <mxGeometry x="290" y="1720" width="180" height="190" as="geometry" />
        </mxCell>
        <mxCell id="YQwB-aBYrOeYrWGFvleu-16" value="&lt;b&gt;&lt;font color=&quot;#cc0000&quot;&gt;Sortie:&lt;/font&gt;&lt;/b&gt;&lt;br&gt;ERR_SQL" style="whiteSpace=wrap;html=1;rounded=0;fontSize=14;fontColor=#333333;strokeColor=#666666;fillColor=#f5f5f5;" vertex="1" parent="1">
          <mxGeometry x="320" y="1930" width="120" height="60" as="geometry" />
        </mxCell>
        <mxCell id="YQwB-aBYrOeYrWGFvleu-19" value="&lt;font style=&quot;font-size: 22px&quot; color=&quot;#b3b3b3&quot;&gt;PremiÃ¨re &lt;br&gt;tentative&lt;/font&gt;" style="text;html=1;align=center;verticalAlign=middle;resizable=0;points=[];autosize=1;strokeColor=none;fillColor=none;fontSize=14;fontColor=#000000;" vertex="1" parent="1">
          <mxGeometry x="956.01" y="1850" width="100" height="50" as="geometry" />
        </mxCell>
        <mxCell id="YQwB-aBYrOeYrWGFvleu-20" value="&lt;font style=&quot;font-size: 22px&quot; color=&quot;#b3b3b3&quot;&gt;Seconde &lt;br&gt;tentative&lt;/font&gt;" style="text;html=1;align=center;verticalAlign=middle;resizable=0;points=[];autosize=1;strokeColor=none;fillColor=none;fontSize=14;fontColor=#000000;" vertex="1" parent="1">
          <mxGeometry x="956.01" y="2160" width="100" height="50" as="geometry" />
        </mxCell>
        <mxCell id="YQwB-aBYrOeYrWGFvleu-22" value="&lt;font color=&quot;#000000&quot; style=&quot;font-size: 14px&quot;&gt;Premier coup = HS&lt;/font&gt;" style="text;html=1;align=center;verticalAlign=middle;resizable=0;points=[];autosize=1;strokeColor=none;fillColor=none;fontSize=22;fontColor=#B3B3B3;" vertex="1" parent="1">
          <mxGeometry x="710" y="1990" width="130" height="30" as="geometry" />
        </mxCell>
        <mxCell id="YQwB-aBYrOeYrWGFvleu-26" style="edgeStyle=orthogonalEdgeStyle;rounded=0;orthogonalLoop=1;jettySize=auto;html=1;exitX=0.5;exitY=1;exitDx=0;exitDy=0;entryX=0.5;entryY=0;entryDx=0;entryDy=0;fontSize=14;fontColor=#000000;strokeColor=#000000;strokeWidth=1;" edge="1" parent="1" source="YQwB-aBYrOeYrWGFvleu-23" target="YQwB-aBYrOeYrWGFvleu-25">
          <mxGeometry relative="1" as="geometry" />
        </mxCell>
        <mxCell id="YQwB-aBYrOeYrWGFvleu-23" value="dwAppelError != ERROR_SUCCESS" style="rhombus;whiteSpace=wrap;html=1;rounded=0;fontSize=14;strokeColor=#d6b656;fillColor=#fff2cc;" vertex="1" parent="1">
          <mxGeometry x="544" y="2300" width="168" height="166.75" as="geometry" />
        </mxCell>
        <mxCell id="YQwB-aBYrOeYrWGFvleu-25" value="&lt;b&gt;&lt;font color=&quot;#cc0000&quot;&gt;Sortie:&lt;/font&gt;&lt;/b&gt;&lt;br&gt;return dwAppelError" style="whiteSpace=wrap;html=1;rounded=0;fontSize=14;fontColor=#333333;strokeColor=#666666;fillColor=#f5f5f5;" vertex="1" parent="1">
          <mxGeometry x="553.75" y="2490" width="148.5" height="60" as="geometry" />
        </mxCell>
        <mxCell id="6gUORLWhg1mMuSl4yJLm-87" style="edgeStyle=orthogonalEdgeStyle;rounded=0;orthogonalLoop=1;jettySize=auto;html=1;exitX=0.5;exitY=1;exitDx=0;exitDy=0;entryX=0.5;entryY=0;entryDx=0;entryDy=0;fontSize=12;fontColor=#000000;fillColor=#fff2cc;strokeColor=#d6b656;" parent="1" source="6gUORLWhg1mMuSl4yJLm-82" target="6gUORLWhg1mMuSl4yJLm-86" edge="1">
          <mxGeometry relative="1" as="geometry" />
        </mxCell>
        <mxCell id="YQwB-aBYrOeYrWGFvleu-32" style="edgeStyle=orthogonalEdgeStyle;rounded=0;orthogonalLoop=1;jettySize=auto;html=1;exitX=0.5;exitY=1;exitDx=0;exitDy=0;entryX=0.5;entryY=0;entryDx=0;entryDy=0;fontSize=14;fontColor=#000000;strokeColor=#d6b656;strokeWidth=1;fillColor=#fff2cc;" edge="1" parent="1" source="YQwB-aBYrOeYrWGFvleu-27" target="YQwB-aBYrOeYrWGFvleu-31">
          <mxGeometry relative="1" as="geometry" />
        </mxCell>
        <mxCell id="YQwB-aBYrOeYrWGFvleu-27" value="&lt;div style=&quot;text-align: left&quot;&gt;&lt;span style=&quot;font-size: 14px&quot;&gt;appel.strNumIC = zMsg.num_ic&lt;/span&gt;&lt;/div&gt;&lt;font style=&quot;font-size: 14px&quot;&gt;&lt;div style=&quot;text-align: left&quot;&gt;&lt;span&gt;appel.strNumBE = zMsg.num_be&lt;/span&gt;&lt;/div&gt;&lt;div style=&quot;text-align: left&quot;&gt;&lt;span&gt;appel.strNumCommande = zMsg.num_commande&lt;/span&gt;&lt;/div&gt;&lt;div style=&quot;text-align: left&quot;&gt;&lt;span&gt;apple.lgPTCMX = zMsg.ptcmx&lt;/span&gt;&lt;/div&gt;&lt;div style=&quot;text-align: left&quot;&gt;&lt;span&gt;appel.iTypLivraison = zMsg.typ_entree&lt;/span&gt;&lt;/div&gt;&lt;/font&gt;" style="whiteSpace=wrap;html=1;rounded=0;strokeColor=#d6b656;fillColor=#fff2cc;" vertex="1" parent="1">
          <mxGeometry x="732.5" y="3348" width="367.5" height="100" as="geometry" />
        </mxCell>
        <mxCell id="YQwB-aBYrOeYrWGFvleu-34" style="edgeStyle=orthogonalEdgeStyle;rounded=0;orthogonalLoop=1;jettySize=auto;html=1;exitX=0.5;exitY=1;exitDx=0;exitDy=0;fontSize=14;fontColor=#000000;strokeColor=#d6b656;strokeWidth=1;fillColor=#fff2cc;" edge="1" parent="1" source="YQwB-aBYrOeYrWGFvleu-31" target="YQwB-aBYrOeYrWGFvleu-33">
          <mxGeometry relative="1" as="geometry">
            <mxPoint x="274.25" y="3587" as="targetPoint" />
          </mxGeometry>
        </mxCell>
        <mxCell id="YQwB-aBYrOeYrWGFvleu-31" value="&lt;div style=&quot;text-align: left&quot;&gt;&lt;span style=&quot;font-size: 14px&quot;&gt;appel.strSecteur = zMsg.strSecteur&lt;/span&gt;&lt;/div&gt;&lt;div style=&quot;text-align: left&quot;&gt;&lt;span style=&quot;font-size: 14px&quot;&gt;appel.strPOrteConfirmee = appel.strPortePrevue&lt;/span&gt;&lt;/div&gt;&lt;div style=&quot;text-align: left&quot;&gt;&lt;span style=&quot;font-size: 14px&quot;&gt;appl.bPdcInvalide = false&lt;/span&gt;&lt;/div&gt;" style="whiteSpace=wrap;html=1;rounded=0;strokeColor=#d6b656;fillColor=#fff2cc;" vertex="1" parent="1">
          <mxGeometry x="730.5" y="3478" width="367.5" height="70" as="geometry" />
        </mxCell>
        <mxCell id="YQwB-aBYrOeYrWGFvleu-36" style="edgeStyle=orthogonalEdgeStyle;rounded=0;orthogonalLoop=1;jettySize=auto;html=1;exitX=0.5;exitY=1;exitDx=0;exitDy=0;fontSize=14;fontColor=#000000;strokeColor=#000000;strokeWidth=1;fillColor=#fff2cc;" edge="1" parent="1" source="YQwB-aBYrOeYrWGFvleu-33" target="YQwB-aBYrOeYrWGFvleu-35">
          <mxGeometry relative="1" as="geometry">
            <mxPoint x="274.25" y="3737" as="sourcePoint" />
            <mxPoint x="274.2222222222222" y="3761" as="targetPoint" />
          </mxGeometry>
        </mxCell>
        <mxCell id="YQwB-aBYrOeYrWGFvleu-38" style="edgeStyle=orthogonalEdgeStyle;rounded=0;orthogonalLoop=1;jettySize=auto;html=1;exitX=1;exitY=0.5;exitDx=0;exitDy=0;fontSize=14;fontColor=#000000;strokeColor=#d6b656;strokeWidth=1;fillColor=#fff2cc;entryX=0.5;entryY=0;entryDx=0;entryDy=0;" edge="1" parent="1" source="YQwB-aBYrOeYrWGFvleu-33" target="YQwB-aBYrOeYrWGFvleu-37">
          <mxGeometry relative="1" as="geometry">
            <mxPoint x="344.25" y="3662" as="sourcePoint" />
          </mxGeometry>
        </mxCell>
        <mxCell id="YQwB-aBYrOeYrWGFvleu-33" value="Appel&lt;br&gt;BD_InsertCamion avec appel&lt;br&gt;= false" style="rhombus;whiteSpace=wrap;html=1;fontSize=14;fillColor=#fff2cc;strokeColor=#d6b656;" vertex="1" parent="1">
          <mxGeometry x="195" y="3610" width="140" height="150" as="geometry" />
        </mxCell>
        <mxCell id="YQwB-aBYrOeYrWGFvleu-35" value="&lt;b&gt;&lt;font color=&quot;#cc0000&quot;&gt;Sortie:&lt;/font&gt;&lt;/b&gt;&lt;br&gt;ERR_SQL" style="whiteSpace=wrap;html=1;rounded=0;fontSize=14;strokeColor=#666666;fillColor=#f5f5f5;fontColor=#333333;" vertex="1" parent="1">
          <mxGeometry x="205" y="3790" width="120" height="60" as="geometry" />
        </mxCell>
        <mxCell id="YQwB-aBYrOeYrWGFvleu-47" style="edgeStyle=orthogonalEdgeStyle;rounded=0;orthogonalLoop=1;jettySize=auto;html=1;exitX=0.5;exitY=1;exitDx=0;exitDy=0;fontSize=14;fontColor=#000000;strokeColor=#d6b656;strokeWidth=1;fillColor=#fff2cc;" edge="1" parent="1" source="YQwB-aBYrOeYrWGFvleu-37" target="YQwB-aBYrOeYrWGFvleu-45">
          <mxGeometry relative="1" as="geometry" />
        </mxCell>
        <mxCell id="YQwB-aBYrOeYrWGFvleu-37" value="&lt;div&gt;&lt;span style=&quot;font-size: 14px&quot;&gt;Appel&lt;/span&gt;&lt;/div&gt;&lt;div&gt;&lt;span style=&quot;font-size: 14px&quot;&gt;&lt;b&gt;MettreAJourEtatCamion&lt;/b&gt;&lt;/span&gt;&lt;/div&gt;&lt;div&gt;&lt;span style=&quot;font-size: 14px&quot;&gt;avec appel.strNumeroAppel et ETAT_CAMION_SUR_PARKING&lt;/span&gt;&lt;/div&gt;&lt;div&gt;&lt;span style=&quot;font-size: 14px&quot;&gt;+ alim dwAppError&lt;/span&gt;&lt;/div&gt;" style="whiteSpace=wrap;html=1;rounded=0;strokeColor=#d6b656;fillColor=#fff2cc;align=center;" vertex="1" parent="1">
          <mxGeometry x="380" y="3735" width="367.5" height="90" as="geometry" />
        </mxCell>
        <mxCell id="YQwB-aBYrOeYrWGFvleu-39" value="Traitements de mise Ã  jour &lt;br&gt;de l&#39;Ã©tat du camion" style="text;html=1;align=left;verticalAlign=middle;resizable=0;points=[];autosize=1;strokeColor=none;fillColor=none;fontSize=14;fontColor=#000000;" vertex="1" parent="1">
          <mxGeometry x="591" y="3680" width="180" height="40" as="geometry" />
        </mxCell>
        <mxCell id="YQwB-aBYrOeYrWGFvleu-55" style="edgeStyle=orthogonalEdgeStyle;rounded=0;orthogonalLoop=1;jettySize=auto;html=1;exitX=0.5;exitY=1;exitDx=0;exitDy=0;entryX=0.5;entryY=0;entryDx=0;entryDy=0;fontSize=14;fontColor=#000000;strokeColor=#d6b656;strokeWidth=1;fillColor=#fff2cc;" edge="1" parent="1" source="YQwB-aBYrOeYrWGFvleu-40" target="YQwB-aBYrOeYrWGFvleu-53">
          <mxGeometry relative="1" as="geometry" />
        </mxCell>
        <mxCell id="YQwB-aBYrOeYrWGFvleu-40" value="&lt;div style=&quot;text-align: left&quot;&gt;&lt;span style=&quot;font-size: 14px&quot;&gt;&lt;b&gt;UPDATE &lt;/b&gt;T_CLASSE&lt;/span&gt;&lt;/div&gt;&lt;span style=&quot;font-size: 14px&quot;&gt;&lt;div style=&quot;text-align: left&quot;&gt;&lt;b&gt;SET &lt;/b&gt;CLS_CPT_APPEL = classe.lgCptAppel,&lt;/div&gt;&lt;div style=&quot;text-align: left&quot;&gt;&lt;span&gt;CLS_APL_URGENT =&lt;/span&gt;&lt;span&gt;classe.&lt;/span&gt;&lt;span&gt;lgCptAppelUrgent,&lt;/span&gt;&lt;/div&gt;&lt;/span&gt;&lt;span style=&quot;font-size: 14px&quot;&gt;&lt;div style=&quot;text-align: left&quot;&gt;&lt;span&gt;CLS_CPT_CPL_PRIORITAIRE =&lt;/span&gt;&lt;span&gt;classe.&lt;/span&gt;&lt;span&gt;lgCptAppelPrioritaire,&lt;/span&gt;&lt;/div&gt;&lt;/span&gt;&lt;span style=&quot;font-size: 14px&quot;&gt;&lt;div style=&quot;text-align: left&quot;&gt;&lt;b&gt;WHERE &lt;/b&gt;CLS_UID = classe.strUID&lt;/div&gt;&lt;/span&gt;" style="whiteSpace=wrap;html=1;rounded=0;strokeColor=#d6b656;fillColor=#fff2cc;align=center;" vertex="1" parent="1">
          <mxGeometry x="679.25" y="3995" width="400.75" height="109" as="geometry" />
        </mxCell>
        <mxCell id="YQwB-aBYrOeYrWGFvleu-48" style="edgeStyle=orthogonalEdgeStyle;rounded=0;orthogonalLoop=1;jettySize=auto;html=1;exitX=0.5;exitY=1;exitDx=0;exitDy=0;fontSize=14;fontColor=#000000;strokeColor=#000000;strokeWidth=1;" edge="1" parent="1" source="YQwB-aBYrOeYrWGFvleu-45" target="YQwB-aBYrOeYrWGFvleu-46">
          <mxGeometry relative="1" as="geometry" />
        </mxCell>
        <mxCell id="YQwB-aBYrOeYrWGFvleu-49" style="edgeStyle=orthogonalEdgeStyle;rounded=0;orthogonalLoop=1;jettySize=auto;html=1;exitX=1;exitY=0.5;exitDx=0;exitDy=0;entryX=0.5;entryY=0;entryDx=0;entryDy=0;fontSize=14;fontColor=#000000;strokeColor=#d6b656;strokeWidth=1;fillColor=#fff2cc;" edge="1" parent="1" source="YQwB-aBYrOeYrWGFvleu-45" target="YQwB-aBYrOeYrWGFvleu-40">
          <mxGeometry relative="1" as="geometry" />
        </mxCell>
        <mxCell id="YQwB-aBYrOeYrWGFvleu-45" value="dwAppError != ERROR_SUCCESS" style="rhombus;whiteSpace=wrap;html=1;fontSize=14;fillColor=#fff2cc;strokeColor=#d6b656;" vertex="1" parent="1">
          <mxGeometry x="493.75" y="3871" width="140" height="150" as="geometry" />
        </mxCell>
        <mxCell id="YQwB-aBYrOeYrWGFvleu-46" value="&lt;b&gt;&lt;font color=&quot;#cc0000&quot;&gt;Sortie:&lt;/font&gt;&lt;/b&gt;&lt;br&gt;return dwAppelError" style="whiteSpace=wrap;html=1;rounded=0;fontSize=14;strokeColor=#666666;fillColor=#f5f5f5;fontColor=#333333;" vertex="1" parent="1">
          <mxGeometry x="497" y="4047" width="134" height="60" as="geometry" />
        </mxCell>
        <mxCell id="YQwB-aBYrOeYrWGFvleu-50" value="Mise Ã  jour des compteurs de la classe" style="text;html=1;align=center;verticalAlign=middle;resizable=0;points=[];autosize=1;strokeColor=none;fillColor=none;fontSize=14;fontColor=#000000;" vertex="1" parent="1">
          <mxGeometry x="907.5" y="3964" width="260" height="20" as="geometry" />
        </mxCell>
        <mxCell id="YQwB-aBYrOeYrWGFvleu-56" style="edgeStyle=orthogonalEdgeStyle;rounded=0;orthogonalLoop=1;jettySize=auto;html=1;exitX=0.5;exitY=1;exitDx=0;exitDy=0;fontSize=14;fontColor=#000000;strokeColor=#000000;strokeWidth=1;" edge="1" parent="1" source="YQwB-aBYrOeYrWGFvleu-53" target="YQwB-aBYrOeYrWGFvleu-54">
          <mxGeometry relative="1" as="geometry" />
        </mxCell>
        <mxCell id="YQwB-aBYrOeYrWGFvleu-58" value="" style="edgeStyle=orthogonalEdgeStyle;rounded=0;orthogonalLoop=1;jettySize=auto;html=1;fontSize=14;fontColor=#000000;strokeColor=#d6b656;strokeWidth=1;entryX=0.5;entryY=0;entryDx=0;entryDy=0;fillColor=#fff2cc;" edge="1" parent="1" source="YQwB-aBYrOeYrWGFvleu-53" target="YQwB-aBYrOeYrWGFvleu-57">
          <mxGeometry relative="1" as="geometry" />
        </mxCell>
        <mxCell id="YQwB-aBYrOeYrWGFvleu-53" value="UPDATE Ã©chouÃ©" style="rhombus;whiteSpace=wrap;html=1;fontSize=14;fillColor=#fff2cc;strokeColor=#d6b656;" vertex="1" parent="1">
          <mxGeometry x="814.45" y="4127" width="130.37" height="140" as="geometry" />
        </mxCell>
        <mxCell id="YQwB-aBYrOeYrWGFvleu-54" value="&lt;b&gt;&lt;font color=&quot;#cc0000&quot;&gt;Sortie:&lt;/font&gt;&lt;/b&gt;&lt;br&gt;ERR_SQL" style="whiteSpace=wrap;html=1;rounded=0;fontSize=14;fontColor=#333333;strokeColor=#666666;fillColor=#f5f5f5;" vertex="1" parent="1">
          <mxGeometry x="819.63" y="4288" width="120" height="60" as="geometry" />
        </mxCell>
        <mxCell id="YQwB-aBYrOeYrWGFvleu-62" style="edgeStyle=orthogonalEdgeStyle;rounded=0;orthogonalLoop=1;jettySize=auto;html=1;exitX=0.5;exitY=1;exitDx=0;exitDy=0;entryX=0.5;entryY=0;entryDx=0;entryDy=0;fontSize=14;fontColor=#000000;strokeColor=#000000;strokeWidth=1;" edge="1" parent="1" source="YQwB-aBYrOeYrWGFvleu-57" target="YQwB-aBYrOeYrWGFvleu-61">
          <mxGeometry relative="1" as="geometry" />
        </mxCell>
        <mxCell id="YQwB-aBYrOeYrWGFvleu-69" value="" style="edgeStyle=orthogonalEdgeStyle;rounded=0;orthogonalLoop=1;jettySize=auto;html=1;fontSize=14;fontColor=#000000;strokeColor=#d6b656;strokeWidth=1;fillColor=#fff2cc;" edge="1" parent="1" source="YQwB-aBYrOeYrWGFvleu-57" target="YQwB-aBYrOeYrWGFvleu-61">
          <mxGeometry relative="1" as="geometry" />
        </mxCell>
        <mxCell id="YQwB-aBYrOeYrWGFvleu-57" value="&lt;div&gt;&lt;span&gt;strNumeroAppel = appel.strNumeroAppel&lt;/span&gt;&lt;/div&gt;" style="whiteSpace=wrap;html=1;fontSize=14;fillColor=#fff2cc;strokeColor=#d6b656;align=center;" vertex="1" parent="1">
          <mxGeometry x="956.01" y="4234" width="279.99" height="40" as="geometry" />
        </mxCell>
        <mxCell id="YQwB-aBYrOeYrWGFvleu-60" value="si tout est OK, on renvoie le numÃ©ro d&#39;appel" style="text;html=1;align=center;verticalAlign=middle;resizable=0;points=[];autosize=1;strokeColor=none;fillColor=none;fontSize=14;fontColor=#000000;" vertex="1" parent="1">
          <mxGeometry x="1113" y="4204" width="290" height="20" as="geometry" />
        </mxCell>
        <mxCell id="YQwB-aBYrOeYrWGFvleu-67" style="edgeStyle=orthogonalEdgeStyle;rounded=0;orthogonalLoop=1;jettySize=auto;html=1;exitX=0.5;exitY=1;exitDx=0;exitDy=0;fontSize=14;fontColor=#000000;strokeColor=#d6b656;strokeWidth=1;fillColor=#fff2cc;" edge="1" parent="1" source="YQwB-aBYrOeYrWGFvleu-61" target="YQwB-aBYrOeYrWGFvleu-65">
          <mxGeometry relative="1" as="geometry" />
        </mxCell>
        <mxCell id="YQwB-aBYrOeYrWGFvleu-61" value="&lt;div&gt;&lt;span style=&quot;font-size: 14px&quot;&gt;Appel&lt;/span&gt;&lt;/div&gt;&lt;div&gt;&lt;span style=&quot;font-size: 14px&quot;&gt;&lt;b&gt;ConstituerTicketIdent&lt;/b&gt;&lt;/span&gt;&lt;/div&gt;&lt;div&gt;&lt;span style=&quot;font-size: 14px&quot;&gt;avec appel&lt;/span&gt;&lt;/div&gt;&lt;div&gt;&lt;span style=&quot;font-size: 14px&quot;&gt;+ alim dwAppError&lt;/span&gt;&lt;/div&gt;" style="whiteSpace=wrap;html=1;rounded=0;strokeColor=#d6b656;fillColor=#fff2cc;align=center;" vertex="1" parent="1">
          <mxGeometry x="989.1199999999999" y="4304" width="213.76" height="90" as="geometry" />
        </mxCell>
        <mxCell id="YQwB-aBYrOeYrWGFvleu-68" style="edgeStyle=orthogonalEdgeStyle;rounded=0;orthogonalLoop=1;jettySize=auto;html=1;exitX=0.5;exitY=1;exitDx=0;exitDy=0;fontSize=14;fontColor=#000000;strokeColor=#000000;strokeWidth=1;" edge="1" parent="1" source="YQwB-aBYrOeYrWGFvleu-65" target="YQwB-aBYrOeYrWGFvleu-66">
          <mxGeometry relative="1" as="geometry" />
        </mxCell>
        <mxCell id="YQwB-aBYrOeYrWGFvleu-71" style="edgeStyle=orthogonalEdgeStyle;rounded=0;orthogonalLoop=1;jettySize=auto;html=1;exitX=1;exitY=0.5;exitDx=0;exitDy=0;entryX=0.5;entryY=0;entryDx=0;entryDy=0;fontSize=14;fontColor=#CC0000;strokeColor=#d6b656;strokeWidth=1;fillColor=#fff2cc;" edge="1" parent="1" source="YQwB-aBYrOeYrWGFvleu-65" target="YQwB-aBYrOeYrWGFvleu-70">
          <mxGeometry relative="1" as="geometry" />
        </mxCell>
        <mxCell id="YQwB-aBYrOeYrWGFvleu-65" value="dwAppError != ERROR_SUCCESS" style="rhombus;whiteSpace=wrap;html=1;fontSize=14;fillColor=#fff2cc;strokeColor=#d6b656;" vertex="1" parent="1">
          <mxGeometry x="1026" y="4426" width="140" height="150" as="geometry" />
        </mxCell>
        <mxCell id="YQwB-aBYrOeYrWGFvleu-66" value="&lt;b&gt;&lt;font color=&quot;#cc0000&quot;&gt;Sortie:&lt;/font&gt;&lt;/b&gt;&lt;br&gt;return dwAppelError" style="whiteSpace=wrap;html=1;rounded=0;fontSize=14;strokeColor=#666666;fillColor=#f5f5f5;fontColor=#333333;" vertex="1" parent="1">
          <mxGeometry x="1029.25" y="4603" width="134" height="60" as="geometry" />
        </mxCell>
        <mxCell id="YQwB-aBYrOeYrWGFvleu-70" value="&lt;b&gt;&lt;font color=&quot;#cc0000&quot;&gt;Sortie:&lt;/font&gt;&lt;/b&gt;&lt;br&gt;return ERROR_SUCCESS" style="rounded=0;whiteSpace=wrap;html=1;fontSize=14;fillColor=#fff2cc;strokeColor=#d6b656;" vertex="1" parent="1">
          <mxGeometry x="1196" y="4603" width="190" height="50" as="geometry" />
        </mxCell>
        <mxCell id="YQwB-aBYrOeYrWGFvleu-11" style="edgeStyle=orthogonalEdgeStyle;rounded=0;orthogonalLoop=1;jettySize=auto;html=1;exitX=0.5;exitY=1;exitDx=0;exitDy=0;fontSize=14;fontColor=#CC0000;strokeColor=#d6b656;strokeWidth=1;fillColor=#fff2cc;entryX=0.5;entryY=0;entryDx=0;entryDy=0;" edge="1" parent="1" source="6gUORLWhg1mMuSl4yJLm-43" target="YQwB-aBYrOeYrWGFvleu-15">
          <mxGeometry relative="1" as="geometry">
            <mxPoint x="440" y="1940" as="targetPoint" />
            <Array as="points">
              <mxPoint x="1332" y="1680" />
              <mxPoint x="380" y="1680" />
            </Array>
          </mxGeometry>
        </mxCell>
      </root>
    </mxGraphModel>
  </diagram>
</mxfile>
